<svg width="14" height="14" viewBox="0 0 14 14" fill="none" xmlns="http://www.w3.org/2000/svg">
<path d="M6.99999 7.94L7.93999 7L4.63999 3.7L3.69999 4.64L6.99999 7.94ZM11.7133 2.28667C11.096 1.66549 10.3615 1.17299 9.5524 0.837692C8.74333 0.502394 7.87578 0.330966 6.99999 0.333337H6.33333V3H7.66666V1.70667C8.86228 1.85779 9.97148 2.40938 10.8135 3.27156C11.6555 4.13375 12.1807 5.25569 12.3035 6.45455C12.4263 7.65342 12.1394 8.85852 11.4896 9.87348C10.8398 10.8884 9.86547 11.6534 8.7253 12.0437C7.58513 12.4341 6.34637 12.4267 5.21089 12.023C4.07542 11.6192 3.11018 10.8427 2.47246 9.82013C1.83475 8.79755 1.56216 7.58913 1.69911 6.3918C1.83607 5.19448 2.3745 4.07883 3.22666 3.22667L3.69999 2.76L2.75999 1.81334L2.28666 2.28667C1.64992 2.90165 1.14204 3.63728 0.792649 4.45064C0.443256 5.264 0.259348 6.1388 0.251656 7.024C0.243963 7.90919 0.412641 8.78706 0.747847 9.60636C1.08305 10.4257 1.57807 11.17 2.20403 11.796C2.82998 12.4219 3.57432 12.9169 4.39363 13.2521C5.21294 13.5874 6.0908 13.756 6.976 13.7483C7.8612 13.7406 8.736 13.5567 9.54936 13.2073C10.3627 12.858 11.0983 12.3501 11.7133 11.7133C12.9631 10.4632 13.6652 8.76777 13.6652 7C13.6652 5.23224 12.9631 3.53686 11.7133 2.28667Z" fill="#FC8233"/>
</svg>