<svg width="29" height="8" viewBox="0 0 29 8" fill="none" xmlns="http://www.w3.org/2000/svg">
<path d="M25 3.24445H0.7C0.3 3.24445 0 3.54445 0 3.94445C0 4.34445 0.3 4.64445 0.7 4.64445H25C25.4 4.64445 25.7 4.34445 25.7 3.94445C25.7 3.54445 25.4 3.24445 25 3.24445Z" fill="#FC8233"/>
<path d="M24.4 4.74444V0.444444C24.4 0.0444444 24.7 -0.155556 25 0.144444L26.2 1.24444C26.5 1.54444 27.1 2.04444 27.4 2.34444L28.6 3.44444C28.9 3.74444 28.9 4.24444 28.6 4.54444L27.4 5.64444C27.1 5.94444 26.5 6.44444 26.2 6.74444L25 7.64444C24.7 7.94444 24.4 7.84444 24.4 7.34444V4.74444Z" fill="#FC8233"/>
</svg> 