<svg width="188" height="32" viewBox="0 0 188 32" fill="none" xmlns="http://www.w3.org/2000/svg">
<path d="M59.09 27.36H59.02C57.12 30.08 54.02 31.26 50.4 31.26H31.25L0 0H51.25C59.09 0 64.05 4.06001 65.01 10.73H56.54C56.2454 9.66437 55.5919 8.73309 54.69 8.09357C53.7881 7.45404 52.6931 7.14547 51.59 7.22C47.39 7.22 45.25 10.73 45.25 15.64C45.25 20.55 47.68 24.2 51.92 24.2C55.11 24.2 56.66 22.48 57.21 20.47H53.21V14.26H65.59V30.53H59.08L59.09 27.36ZM80.52 20.88C79.5431 21.342 78.5116 21.678 77.45 21.88C75.14 22.39 74.45 23.06 74.45 24.32C74.45 25.75 75.62 26.37 76.92 26.37C77.4033 26.4058 77.8885 26.337 78.3428 26.1683C78.797 25.9996 79.2095 25.7348 79.5522 25.3922C79.8948 25.0495 80.1596 24.637 80.3283 24.1828C80.4971 23.7285 80.5658 23.2433 80.53 22.76L80.52 20.88ZM80.52 28.18H80.43C79.6735 29.156 78.6887 29.931 77.5622 30.4367C76.4356 30.9425 75.202 31.1633 73.97 31.08C69.87 31.08 66.84 28.85 66.84 24.66C66.84 19.92 70.49 18.54 74.6 18.07C79.13 17.57 80.35 17.07 80.35 15.69C80.35 14.51 79.8 13.63 78.08 13.63C77.7258 13.6041 77.37 13.6507 77.0345 13.7671C76.6989 13.8835 76.3906 14.0671 76.1285 14.3068C75.8664 14.5464 75.6559 14.8371 75.51 15.1609C75.3641 15.4847 75.2859 15.8349 75.28 16.19H67.76C67.92 11.95 71.21 8.47 77.91 8.47C81.19 8.47 83.29 8.89001 84.91 9.89001C85.9894 10.5622 86.8669 11.5137 87.4496 12.6439C88.0323 13.7741 88.2985 15.0409 88.22 16.31V30.54H80.5L80.52 28.18ZM98.14 21.76V30.53H90.2V9.13H97.75V12.36H97.87C98.503 11.199 99.4482 10.2383 100.599 9.58621C101.749 8.93415 103.059 8.61681 104.38 8.67001C104.82 8.64059 105.262 8.71242 105.67 8.88V15.63H105.5C100.85 14.83 98.12 16.93 98.13 21.75L98.14 21.76ZM121.08 17.75C120.74 15.37 119.39 13.94 117.51 13.94C115.33 13.94 114.11 15.41 113.69 17.75H121.08ZM117.88 25.94C118.48 25.9845 119.081 25.8578 119.612 25.5746C120.143 25.2914 120.583 24.8633 120.88 24.34H128.55C127.892 26.5115 126.439 28.3545 124.48 29.5C122.437 30.7751 120.057 31.4058 117.65 31.31C110.65 31.31 105.94 26.52 105.94 19.98C105.888 18.4695 106.148 16.9644 106.704 15.5588C107.259 14.1532 108.098 12.8772 109.169 11.8103C110.24 10.7434 111.519 9.90865 112.926 9.35803C114.334 8.80741 115.84 8.55276 117.35 8.60999C120.257 8.51347 123.087 9.55377 125.24 11.51C127.84 13.9 129.06 17.71 128.97 21.95H113.66C114.12 24.43 115.46 25.95 117.85 25.95L117.88 25.94ZM144.19 18.82C144.19 16.59 143.27 15.12 141.19 15.12C139.11 15.12 137.97 16.89 137.96 19.2V30.73H130.03V9.32999H137.66V12.27H137.78C138.53 11.1373 139.553 10.2124 140.756 9.58127C141.959 8.95014 143.302 8.63325 144.66 8.66C149.66 8.66 152.17 11.97 152.17 16.89V30.73H144.24L144.19 18.82ZM161.85 22.82C161.85 24.96 163.36 25 165.85 24.82V30.65C164.575 30.9715 163.265 31.1394 161.95 31.15C156.74 31.15 154.1 29.68 154.1 24.56V2.42999H161.86V9.35001H165.93V14.14H161.86L161.85 22.82ZM177.24 22.11C174.94 22.61 174.24 23.28 174.24 24.54C174.24 25.97 175.42 26.54 176.72 26.54C177.203 26.5793 177.688 26.5131 178.143 26.3461C178.597 26.1791 179.01 25.9152 179.353 25.5728C179.695 25.2303 179.959 24.8174 180.126 24.3628C180.293 23.9082 180.359 23.4227 180.32 22.94V21.04C179.34 21.5036 178.305 21.8397 177.24 22.04V22.11ZM187.98 30.68H180.26V28.4H180.18C179.424 29.3755 178.439 30.1495 177.312 30.6536C176.185 31.1577 174.951 31.3763 173.72 31.29C169.61 31.29 166.59 29.07 166.59 24.87C166.59 20.13 170.24 18.75 174.35 18.29C178.87 17.78 180.1 17.24 180.1 15.9C180.1 14.73 179.55 13.84 177.83 13.84C177.476 13.8155 177.121 13.8632 176.786 13.9801C176.451 14.097 176.143 14.2808 175.882 14.5201C175.62 14.7595 175.409 15.0495 175.263 15.3727C175.117 15.6958 175.037 16.0453 175.03 16.4H167.51C167.68 12.15 170.95 8.67001 177.66 8.67001C180.94 8.67001 183.04 9.09001 184.66 10.1C185.742 10.7673 186.621 11.7165 187.204 12.8458C187.787 13.975 188.052 15.2417 187.97 16.51V30.74L187.98 30.68Z" fill="#FF5600"/>
</svg>