      <svg width="24" height="24" viewBox="0 0 24 24" fill="none" xmlns="http://www.w3.org/2000/svg">
            <path d="M7.5 9H4.5C4.30109 9 4.11032 8.92098 3.96967 8.78033C3.82902 8.63968 3.75 8.44891 3.75 8.25V5.25C3.75 5.05109 3.82902 4.86032 3.96967 4.71967C4.11032 4.57902 4.30109 4.5 4.5 4.5H7.5C7.69891 4.5 7.88968 4.57902 8.03033 4.71967C8.17098 4.86032 8.25 5.05109 8.25 5.25V8.25C8.25 8.44891 8.17098 8.63968 8.03033 8.78033C7.88968 8.92098 7.69891 9 7.5 9ZM5.25 7.5H6.75V6H5.25V7.5Z" fill="#919191"/>
            <path d="M4.5 6.3525V8.25H7.5V6.3525C7.34535 6.60549 7.12273 6.80993 6.85752 6.94254C6.59231 7.07514 6.29518 7.13057 6 7.1025C5.70482 7.13057 5.40769 7.07514 5.14248 6.94254C4.87727 6.80993 4.65465 6.60549 4.5 6.3525Z" fill="#919191"/>
            <path d="M15.75 11.6025V13.5H18.75V11.6025C18.5953 11.8555 18.3727 12.0599 18.1075 12.1925C17.8423 12.3251 17.5452 12.3806 17.25 12.3525C16.9548 12.3806 16.6577 12.3251 16.3925 12.1925C16.1273 12.0599 15.9047 11.8555 15.75 11.6025Z" fill="#919191"/>
            <path d="M4.5 16.8525V18.75H7.5V16.8525C7.34535 17.1055 7.12273 17.3099 6.85752 17.4425C6.59231 17.5751 6.29518 17.6306 6 17.6025C5.70482 17.6306 5.40769 17.5751 5.14248 17.4425C4.87727 17.3099 4.65465 17.1055 4.5 16.8525Z" fill="#919191"/>
            <path d="M21.75 7.5H7.5C7.30109 7.5 7.11032 7.42098 6.96967 7.28033C6.82902 7.13968 6.75 6.94891 6.75 6.75C6.75 6.55109 6.82902 6.36032 6.96967 6.21967C7.11032 6.07902 7.30109 6 7.5 6H21.75C21.9489 6 22.1397 6.07902 22.2803 6.21967C22.421 6.36032 22.5 6.55109 22.5 6.75C22.5 6.94891 22.421 7.13968 22.2803 7.28033C22.1397 7.42098 21.9489 7.5 21.75 7.5Z" fill="#919191"/>
            <path d="M4.5 7.5H2.25C2.05109 7.5 1.86032 7.42098 1.71967 7.28033C1.57902 7.13968 1.5 6.94891 1.5 6.75C1.5 6.55109 1.57902 6.36032 1.71967 6.21967C1.86032 6.07902 2.05109 6 2.25 6H4.5C4.69891 6 4.88968 6.07902 5.03033 6.21967C5.17098 6.36032 5.25 6.55109 5.25 6.75C5.25 6.94891 5.17098 7.13968 5.03033 7.28033C4.88968 7.42098 4.69891 7.5 4.5 7.5Z" fill="#919191"/>
            <path d="M7.5 19.5H4.5C4.30109 19.5 4.11032 19.421 3.96967 19.2803C3.82902 19.1397 3.75 18.9489 3.75 18.75V15.75C3.75 15.5511 3.82902 15.3603 3.96967 15.2197C4.11032 15.079 4.30109 15 4.5 15H7.5C7.69891 15 7.88968 15.079 8.03033 15.2197C8.17098 15.3603 8.25 15.5511 8.25 15.75V18.75C8.25 18.9489 8.17098 19.1397 8.03033 19.2803C7.88968 19.421 7.69891 19.5 7.5 19.5ZM5.25 18H6.75V16.5H5.25V18Z" fill="#919191"/>
            <path d="M4.5 18H2.25C2.05109 18 1.86032 17.921 1.71967 17.7803C1.57902 17.6397 1.5 17.4489 1.5 17.25C1.5 17.0511 1.57902 16.8603 1.71967 16.7197C1.86032 16.579 2.05109 16.5 2.25 16.5H4.5C4.69891 16.5 4.88968 16.579 5.03033 16.7197C5.17098 16.8603 5.25 17.0511 5.25 17.25C5.25 17.4489 5.17098 17.6397 5.03033 17.7803C4.88968 17.921 4.69891 18 4.5 18Z" fill="#919191"/>
            <path d="M21.75 18H7.5C7.30109 18 7.11032 17.921 6.96967 17.7803C6.82902 17.6397 6.75 17.4489 6.75 17.25C6.75 17.0511 6.82902 16.8603 6.96967 16.7197C7.11032 16.579 7.30109 16.5 7.5 16.5H21.75C21.9489 16.5 22.1397 16.579 22.2803 16.7197C22.421 16.8603 22.5 17.0511 22.5 17.25C22.5 17.4489 22.421 17.6397 22.2803 17.7803C22.1397 17.921 21.9489 18 21.75 18Z" fill="#919191"/>
            <path d="M18.75 14.25H15.75C15.5511 14.25 15.3603 14.171 15.2197 14.0303C15.079 13.8897 15 13.6989 15 13.5V10.5C15 10.3011 15.079 10.1103 15.2197 9.96967C15.3603 9.82902 15.5511 9.75 15.75 9.75H18.75C18.9489 9.75 19.1397 9.82902 19.2803 9.96967C19.421 10.1103 19.5 10.3011 19.5 10.5V13.5C19.5 13.6989 19.421 13.8897 19.2803 14.0303C19.1397 14.171 18.9489 14.25 18.75 14.25ZM16.5 12.75H18V11.25H16.5V12.75Z" fill="#919191"/>
            <path d="M15.75 12.75H2.25C2.05109 12.75 1.86032 12.671 1.71967 12.5303C1.57902 12.3897 1.5 12.1989 1.5 12C1.5 11.8011 1.57902 11.6103 1.71967 11.4697C1.86032 11.329 2.05109 11.25 2.25 11.25H15.75C15.9489 11.25 16.1397 11.329 16.2803 11.4697C16.421 11.6103 16.5 11.8011 16.5 12C16.5 12.1989 16.421 12.3897 16.2803 12.5303C16.1397 12.671 15.9489 12.75 15.75 12.75Z" fill="#919191"/>
            <path d="M21.75 12.75H18.75C18.5511 12.75 18.3603 12.671 18.2197 12.5303C18.079 12.3897 18 12.1989 18 12C18 11.8011 18.079 11.6103 18.2197 11.4697C18.3603 11.329 18.5511 11.25 18.75 11.25H21.75C21.9489 11.25 22.1397 11.329 22.2803 11.4697C22.421 11.6103 22.5 11.8011 22.5 12C22.5 12.1989 22.421 12.3897 22.2803 12.5303C22.1397 12.671 21.9489 12.75 21.75 12.75Z" fill="#919191"/>
      </svg>